<?xml version="1.0" standalone="no"?>
<!DOCTYPE svg PUBLIC "-//W3C//DTD SVG 20010904//EN"
 "http://www.w3.org/TR/2001/REC-SVG-20010904/DTD/svg10.dtd">
<svg version="1.0" xmlns="http://www.w3.org/2000/svg"
 width="1080.000000pt" height="1079.000000pt" viewBox="0 0 1080.000000 1079.000000"
 preserveAspectRatio="xMidYMid meet">

<g transform="translate(0.000000,1079.000000) scale(0.100000,-0.100000)"
fill="#000000" stroke="none">
<path d="M2698 10783 c1486 -2 3918 -2 5405 0 1486 1 270 2 -2703 2 -2973 0
-4189 -1 -2702 -2z"/>
<path d="M4496 8489 c-55 -30 -164 -144 -209 -220 -102 -173 -100 -358 4 -367
27 -2 60 13 164 74 72 42 150 83 173 92 64 21 160 11 257 -27 119 -46 117 -44
70 -91 l-40 -40 -71 25 c-38 13 -95 27 -125 31 -70 8 -99 -4 -276 -115 -140
-88 -337 -179 -498 -231 -127 -41 -292 -52 -392 -27 -186 48 -302 157 -389
368 -42 102 -87 151 -155 169 -160 43 -266 -97 -378 -505 -94 -340 -166 -867
-146 -1065 7 -69 8 -72 40 -86 108 -45 681 -108 1173 -129 131 -6 153 -4 158
9 10 27 -35 178 -82 276 -146 303 -344 481 -718 646 -54 24 -116 55 -137 70
-35 24 -58 59 -46 70 10 10 317 -99 422 -150 258 -126 449 -311 570 -553 50
-100 101 -249 111 -323 8 -59 1 -56 159 -65 178 -9 508 -44 685 -71 197 -31
291 -50 510 -103 476 -116 891 -154 1456 -132 538 20 828 57 1262 162 156 37
232 48 232 32 0 -5 -8 -22 -19 -38 -16 -27 -35 -36 -132 -68 -484 -157 -1003
-227 -1679 -227 -393 0 -669 31 -1015 115 -279 68 -478 110 -675 144 -416 72
-497 79 -1230 111 -372 16 -663 43 -880 81 -202 35 -188 35 -220 4 -51 -49
-86 -164 -105 -347 -6 -58 -4 -73 17 -120 50 -108 179 -177 443 -236 l120 -26
1770 -4 c2035 -4 2518 4 2810 49 163 25 399 96 579 175 162 71 335 195 371
265 8 15 20 74 26 129 16 147 9 164 -109 288 -54 55 -115 109 -137 120 -76 38
-177 62 -323 77 -218 22 -256 31 -582 126 -486 142 -685 223 -714 293 -23 55
-79 93 -145 98 -63 4 -112 32 -208 120 -48 44 -58 48 -102 48 -43 0 -57 6
-120 53 -50 37 -70 59 -71 74 0 31 -54 90 -96 103 -19 6 -47 9 -63 5 -40 -9
-181 77 -181 110 0 48 -75 105 -138 105 -41 0 -178 102 -215 161 -35 55 -66
78 -127 94 -62 16 -207 124 -356 266 -158 150 -199 169 -278 128z m765 -686
c52 -36 96 -68 98 -70 9 -7 -64 -73 -76 -69 -24 10 -203 131 -203 139 0 11 63
66 76 67 6 0 53 -30 105 -67z m-379 -38 c-8 -73 24 -97 68 -50 30 32 40 32 40
-1 0 -60 -47 -93 -106 -74 -61 21 -84 93 -42 137 27 29 44 24 40 -12z m798
-252 c13 -12 11 -18 -22 -48 l-37 -34 -83 56 c-46 31 -85 58 -88 61 -3 2 12
19 32 38 l38 34 72 -46 c40 -26 80 -53 88 -61z m-435 15 c-26 -84 -10 -106 54
-70 43 24 50 22 43 -13 -5 -29 -46 -65 -74 -65 -28 0 -76 27 -88 49 -25 48 7
121 53 121 15 0 18 -4 12 -22z m698 -183 c42 -27 77 -54 77 -59 0 -12 -51 -66
-62 -66 -6 0 -160 93 -178 108 -6 5 73 73 81 69 3 -1 40 -24 82 -52z m-353
-58 c0 -71 30 -85 84 -40 l31 26 3 -34 c3 -26 -2 -39 -23 -56 -31 -27 -55 -29
-95 -8 -57 29 -76 87 -44 133 25 37 44 28 44 -21z m695 -158 c47 -28 85 -54
85 -57 0 -4 -13 -22 -28 -41 l-28 -33 -93 57 -93 57 33 34 c18 19 35 34 36 34
2 0 42 -23 88 -51z m-345 -33 c0 -19 8 -44 19 -57 l18 -22 36 22 c42 26 56 22
49 -14 -7 -38 -50 -68 -86 -61 -68 14 -102 79 -74 141 17 37 38 32 38 -9z
m386 -201 c20 -53 47 -59 84 -20 13 14 27 25 32 25 16 0 8 -58 -13 -84 -59
-75 -194 20 -149 105 16 29 27 23 46 -26z"/>
<path d="M3458 5265 c-235 -37 -457 -157 -592 -321 -162 -196 -239 -433 -237
-729 2 -439 189 -774 524 -934 131 -63 217 -82 402 -88 134 -4 176 -2 255 15
341 70 610 308 715 631 26 81 26 81 -233 81 -117 0 -221 -4 -231 -9 -10 -6
-23 -27 -30 -48 -19 -57 -80 -143 -128 -179 -67 -51 -145 -76 -253 -81 -251
-14 -435 115 -517 361 -25 75 -27 94 -27 246 -1 141 3 178 23 255 30 116 71
192 136 254 91 86 210 131 350 131 136 0 274 -53 329 -125 29 -38 76 -130 76
-149 0 -8 7 -22 16 -30 13 -14 49 -16 243 -16 177 0 231 3 239 13 15 18 -17
154 -57 241 -73 161 -221 315 -380 396 -178 91 -394 120 -623 85z"/>
<path d="M5310 5269 c-86 -13 -216 -59 -288 -100 -31 -19 -91 -68 -133 -109
-108 -106 -153 -202 -165 -351 -20 -236 96 -425 327 -538 102 -49 159 -67 428
-130 162 -39 224 -61 278 -101 86 -63 108 -182 50 -269 -56 -84 -227 -135
-378 -113 -174 25 -276 101 -300 224 -9 46 -16 59 -33 63 -11 3 -104 4 -206 3
l-185 -3 -3 -34 c-5 -49 26 -177 59 -248 58 -121 159 -218 306 -292 212 -106
542 -114 799 -20 94 34 213 109 279 174 104 104 155 229 155 382 0 103 -14
172 -52 248 -91 184 -258 284 -608 361 -85 19 -189 43 -230 55 -149 40 -230
115 -230 211 0 86 45 148 135 190 43 20 66 23 165 23 94 -1 125 -5 169 -22
100 -41 151 -90 172 -167 7 -25 18 -40 35 -46 34 -13 370 -13 395 0 49 27 -9
224 -101 346 -77 102 -244 202 -410 245 -98 25 -320 34 -430 18z"/>
<path d="M7305 5273 c-194 -30 -356 -108 -493 -237 -219 -208 -323 -499 -309
-871 17 -449 217 -757 587 -903 134 -53 218 -67 390 -66 133 1 169 5 253 27
170 45 304 121 417 236 104 105 208 290 226 398 5 35 3 43 -14 52 -26 14 -406
15 -431 1 -10 -5 -26 -31 -36 -57 -61 -162 -174 -240 -360 -250 -219 -12 -389
84 -479 269 -50 103 -67 175 -73 313 -12 276 64 497 204 599 129 94 332 110
491 40 94 -41 156 -115 192 -229 24 -77 17 -75 260 -75 182 0 220 2 230 15 19
23 -12 139 -69 260 -88 184 -210 308 -392 394 -136 66 -218 83 -404 86 -88 2
-173 1 -190 -2z"/>
</g>
</svg>
