<svg version="1.1" id="Layer_1" xmlns="http://www.w3.org/2000/svg" xmlns:xlink="http://www.w3.org/1999/xlink" x="0px" y="0px"
	 width="100%" viewBox="0 0 1024 1024" enable-background="new 0 0 1024 1024" xml:space="preserve">
<path fill="#000000" opacity="1.000000" stroke="none" 
	d="
M259.749695,270.902771 
	C262.027405,266.217438 264.177979,261.901184 267.240387,258.098999 
	C275.642548,247.667236 290.490814,248.351227 297.653961,259.709564 
	C299.587372,262.775299 300.883972,266.269409 302.266174,269.651367 
	C308.640808,285.249115 318.801910,296.992188 335.502686,301.775482 
	C346.638702,304.964966 357.978577,304.631592 369.046753,301.565308 
	C390.576569,295.600769 410.639404,286.189606 428.951752,273.456238 
	C439.323914,266.243988 449.637238,265.475800 461.012573,270.025574 
	C467.605133,272.662415 467.898346,272.351654 472.110718,266.057312 
	C464.621704,258.380280 446.015961,255.353516 435.638245,260.554535 
	C429.249115,263.756592 423.251923,267.733917 417.023224,271.265381 
	C413.007874,273.541962 408.867310,276.826538 404.116760,273.555695 
	C399.509735,270.383698 398.450745,264.968628 399.231537,260.085236 
	C402.206421,241.479050 411.900391,227.046829 427.999695,217.125641 
	C431.709076,214.839722 435.659973,215.310410 439.422211,217.428818 
	C444.558014,220.320663 449.010223,224.112076 452.970825,228.394333 
	C461.634888,237.762115 471.811096,245.277527 482.030304,252.766312 
	C483.538788,253.871750 485.101807,254.609421 487.016174,254.830399 
	C492.749542,255.492188 496.573273,258.977539 499.842133,263.479645 
	C505.811920,271.701630 512.923523,278.237793 523.595459,279.943512 
	C528.435120,280.717072 531.974426,283.879974 533.752563,288.650146 
	C535.414429,293.108246 544.938660,299.721069 549.690002,299.688812 
	C559.405701,299.622894 562.374207,301.625061 565.651672,310.454712 
	C566.960510,313.980743 577.790100,321.634094 581.573853,321.291229 
	C586.551331,320.840088 590.282532,322.978516 593.607483,326.225555 
	C599.969910,332.438843 606.261719,338.181274 616.240234,338.190674 
	C621.225281,338.195374 624.909119,342.464935 626.880493,347.065430 
	C627.986389,349.645844 629.743652,350.915802 631.864319,352.272278 
	C643.122375,359.473724 655.873413,362.950897 668.408142,366.904266 
	C689.219788,373.468079 709.971802,380.349182 731.512695,384.181305 
	C740.831421,385.839111 750.357056,386.301819 759.720703,387.747589 
	C773.971008,389.947815 786.518494,395.122864 795.247620,407.670715 
	C798.110596,411.786102 803.359558,414.402161 804.174072,419.896484 
	C805.669922,429.987000 804.347900,447.179535 793.355225,455.204590 
	C776.920410,467.202545 758.806458,475.089539 739.647705,481.158020 
	C717.711853,488.106171 695.188171,490.594879 672.262024,491.273102 
	C546.133362,495.004364 419.975952,492.017792 293.837036,493.096527 
	C277.064453,493.239960 260.752930,489.828064 244.941620,484.223206 
	C240.061111,482.493134 235.428513,480.181396 231.151276,477.239380 
	C224.066635,472.366302 219.992889,465.846497 220.714310,456.989288 
	C221.430191,448.200531 222.501831,439.443298 225.253784,431.017029 
	C226.020111,428.670654 227.194351,426.400421 228.512299,424.303162 
	C231.234467,419.971405 234.624008,418.256042 240.254227,419.538177 
	C261.550507,424.387970 283.294281,426.142914 305.026642,427.857147 
	C332.244354,430.004059 359.558075,430.256378 386.788666,432.012482 
	C430.758148,434.848022 473.880951,442.861877 516.502319,453.892944 
	C537.476868,459.321503 558.901062,462.115082 580.494141,463.934662 
	C598.148132,465.422302 615.818359,465.288544 633.430237,464.605499 
	C677.546570,462.894531 721.442261,459.120636 763.892517,445.693970 
	C768.814148,444.137238 773.687561,442.428131 778.588501,440.805389 
	C781.399292,439.874756 783.718384,438.485596 784.214233,434.911621 
	C781.958252,433.790375 779.713013,434.250580 777.484619,434.773987 
	C754.174805,440.248596 730.862244,445.746277 707.073059,448.758759 
	C696.026489,450.157593 684.937622,451.406647 673.828979,452.085358 
	C658.380188,453.029236 642.899719,453.613983 627.424194,453.929169 
	C582.401733,454.846130 538.195190,449.186340 494.544373,438.044464 
	C469.563232,431.668030 444.003448,428.119110 418.256500,426.189545 
	C406.315979,425.294678 394.394958,424.107239 382.444855,423.389771 
	C378.494446,423.152588 377.935242,420.800842 377.419556,417.882721 
	C374.682190,402.393524 368.566315,388.265442 360.164551,375.051208 
	C346.066223,352.877380 325.491302,339.011230 301.547546,329.595215 
	C294.431549,326.796814 287.053589,324.660278 279.776215,322.280029 
	C278.266144,321.786133 276.720703,320.817963 274.777191,322.065948 
	C275.807159,325.491760 278.964996,326.588287 281.596985,328.022308 
	C292.566376,333.998840 304.337219,338.345123 315.093323,344.809937 
	C342.199127,361.101562 359.555023,384.444824 366.768066,415.253510 
	C368.224243,421.473145 367.472961,422.416901 361.185303,422.283417 
	C335.891052,421.746368 310.660583,420.219513 285.499054,417.485565 
	C271.781830,415.995117 258.054077,414.644501 244.611237,411.394836 
	C236.999283,409.554688 236.103195,408.368042 235.743759,400.464569 
	C235.166977,387.781433 236.348877,375.170685 237.866776,362.622955 
	C240.441803,341.336700 243.959869,320.194092 249.733200,299.504364 
	C252.417145,289.886047 255.296692,280.311554 259.749695,270.902771 
M492.654419,279.096863 
	C487.645020,275.786224 486.814850,280.767212 484.075623,283.056488 
	C489.290649,288.155334 495.125580,291.575867 500.906311,295.000061 
	C504.023254,296.846405 505.237366,293.605988 506.710541,291.893860 
	C508.522156,289.788330 506.531799,288.657562 505.063873,287.625122 
	C501.144379,284.868439 497.182373,282.172302 492.654419,279.096863 
M534.076965,316.960266 
	C536.127014,315.544952 538.015869,313.982849 539.145386,311.507996 
	C536.491760,308.566254 532.969788,306.983398 529.782898,304.949493 
	C523.904541,301.197815 523.427673,301.320862 518.924133,307.569519 
	C523.775513,310.726440 528.618347,313.877777 534.076965,316.960266 
M562.451782,326.117340 
	C555.366882,321.460114 554.872742,321.533417 550.880249,328.007172 
	C553.780762,330.947601 557.503296,332.800049 560.948853,334.999786 
	C566.437378,338.503815 567.451843,338.085480 570.208557,331.717468 
	C568.294861,329.362061 565.456177,328.225861 562.451782,326.117340 
M586.807312,350.882324 
	C589.345825,352.445465 591.855835,354.057495 594.428955,355.561523 
	C599.666321,358.622833 600.452637,358.357758 603.651978,352.208221 
	C599.250610,349.470123 594.879944,346.541016 590.303406,343.980011 
	C587.389526,342.349396 586.288818,345.449371 584.779480,346.914551 
	C582.707153,348.926270 585.020142,349.610138 586.807312,350.882324 
M530.731567,335.764618 
	C529.314758,333.815643 531.639709,331.099884 529.258484,329.076660 
	C525.701477,331.668335 525.307495,334.937927 527.106262,338.570129 
	C528.749817,341.888947 534.009521,344.040131 537.368286,342.842560 
	C540.506165,341.723755 542.223511,339.653748 541.304688,335.782501 
	C537.740417,336.623322 534.573792,342.185059 530.731567,335.764618 
M495.387177,308.535889 
	C491.943634,311.145538 490.315765,314.285797 492.830109,318.380005 
	C495.078949,322.041840 498.643127,322.648987 502.423553,321.705048 
	C505.180420,321.016693 506.813232,319.153625 506.198517,315.845032 
	C505.374664,316.000549 504.885132,316.049316 504.422455,316.187744 
	C502.208038,316.850159 500.268127,319.560150 497.655762,317.272156 
	C495.277405,315.189117 496.348907,312.797302 497.245056,310.421844 
	C497.662811,309.314514 498.050751,307.966278 495.387177,308.535889 
M472.380859,291.133392 
	C469.887939,291.959534 468.322235,295.675262 464.997894,293.778229 
	C461.992615,292.063202 463.673462,288.266144 462.079803,285.525452 
	C458.643433,287.417206 457.898865,289.914246 459.173401,293.068878 
	C460.795959,297.084991 463.899261,299.183258 468.151794,298.423004 
	C471.877258,297.756897 473.631348,295.128235 472.380859,291.133392 
M573.920288,359.572937 
	C574.661133,358.244293 575.209900,356.896576 574.324280,355.279572 
	C571.491760,355.472931 569.273254,359.042999 566.079651,356.966644 
	C563.197998,355.093109 564.532532,351.191376 562.447998,348.508209 
	C559.176758,351.843719 558.884766,355.030029 561.601685,358.383118 
	C564.662354,362.160370 568.967590,362.765259 573.920288,359.572937 
M597.717468,374.709015 
	C600.663757,377.819458 604.021973,379.811829 608.328247,377.689392 
	C610.905945,376.418945 612.183838,374.263611 611.134094,370.811066 
	C608.207703,371.923767 606.337952,375.309418 602.914062,373.931641 
	C599.782349,372.671509 600.899780,368.439301 597.981628,366.570435 
	C595.989868,369.137024 595.897217,371.535431 597.717468,374.709015 
z"/>
<path fill="#000000" opacity="1.000000" stroke="none" 
	d="
M547.209229,678.261169 
	C557.487427,668.289246 556.056519,655.537781 543.929565,648.553284 
	C535.167542,643.506836 525.294006,641.556702 515.567505,639.323853 
	C502.440521,636.310303 489.232452,633.694397 477.088593,627.388794 
	C446.968628,611.749390 438.108185,574.133484 458.688660,547.897766 
	C469.358643,534.295776 483.946320,526.834412 500.580750,523.597229 
	C524.768433,518.889954 547.943359,521.697876 569.409729,534.629578 
	C584.657532,543.815063 593.473206,557.256226 596.100952,574.801819 
	C597.024597,580.968445 595.576843,582.851685 589.344849,582.852356 
	C579.187805,582.853516 569.030762,582.565247 558.873840,582.388123 
	C556.205994,582.341614 553.597961,581.641968 552.892090,578.830627 
	C549.826416,566.620544 540.602905,562.086670 529.561707,559.935059 
	C521.072876,558.280762 512.645874,558.633362 504.530487,562.027527 
	C497.824005,564.832520 493.849091,569.621948 493.150513,577.071716 
	C492.416992,584.893677 496.019714,590.141663 502.498840,593.830566 
	C512.695679,599.635986 524.240112,600.980408 535.391663,603.525085 
	C547.761475,606.347595 559.826538,609.775024 571.327209,615.370789 
	C606.787598,632.624451 608.579346,684.110535 576.628845,705.388367 
	C557.357422,718.222473 536.177979,723.296448 513.104431,721.567078 
	C494.976074,720.208313 478.479218,714.987549 464.666656,702.866150 
	C452.928497,692.565308 447.269348,679.124268 445.848724,663.809448 
	C445.363892,658.582642 446.819763,657.094055 452.000885,657.031006 
	C461.662170,656.913269 471.326019,656.981567 480.988678,657.013489 
	C484.292633,657.024414 486.958191,658.075684 487.462891,661.836304 
	C489.314392,675.632202 498.819733,681.461548 511.037598,684.155273 
	C523.672485,686.940918 535.864197,686.054749 547.209229,678.261169 
z"/>
<path fill="#000000" opacity="1.000000" stroke="none" 
	d="
M421.770508,594.981018 
	C410.806213,594.967773 400.311432,594.906738 389.817291,594.965027 
	C385.457336,594.989197 382.300079,593.367371 381.178009,588.991333 
	C377.129028,573.200500 365.874237,566.124817 350.722717,564.469055 
	C332.375031,562.463989 316.191895,566.746704 305.101105,582.898865 
	C300.184326,590.059387 298.446014,598.495117 296.958923,606.845215 
	C293.791870,624.627686 294.919739,641.825500 303.618286,658.251526 
	C316.672241,682.902161 349.621094,685.954041 367.622345,675.141113 
	C374.806213,670.825928 379.628174,664.634033 382.177368,656.751892 
	C383.580139,652.414429 386.305267,650.680786 390.722351,650.735535 
	C402.215088,650.878235 413.710663,650.795471 425.203064,650.954163 
	C431.647736,651.043152 433.009827,652.941406 430.845062,659.022888 
	C418.759277,692.975220 395.139130,713.826355 359.571716,720.145508 
	C331.405792,725.149719 305.212616,719.951294 282.409546,701.868591 
	C266.026306,688.876831 257.223358,671.154114 252.519730,651.225281 
	C246.421097,625.385864 247.779816,599.819153 258.582428,575.541687 
	C272.728241,543.750671 298.423157,527.127563 332.496674,522.649109 
	C353.569427,519.879456 373.674561,522.481445 392.233246,533.399414 
	C412.410675,545.269653 424.974152,562.824036 430.123199,585.582336 
	C431.915161,593.502563 430.539764,594.815674 421.770508,594.981018 
z"/>
<path fill="#000000" opacity="1.000000" stroke="none" 
	d="
M645.050964,546.046509 
	C662.680420,529.222168 683.488647,521.911987 707.382507,521.549805 
	C729.186279,521.219238 748.984314,526.575378 766.163513,539.996521 
	C782.064880,552.419250 790.889954,569.340088 794.914612,588.904358 
	C795.726135,592.849365 793.894775,595.206787 789.972412,595.255676 
	C778.146851,595.403076 766.317810,595.372803 754.491150,595.278931 
	C750.420044,595.246643 747.959412,592.677673 747.110596,588.964111 
	C742.700256,569.669312 726.325745,562.124634 707.664673,562.205139 
	C688.807922,562.286438 674.031006,572.851379 668.497498,590.582886 
	C661.938965,611.599182 660.443970,632.751709 669.474060,653.511780 
	C682.327087,683.060669 713.146545,684.931458 731.099121,677.382446 
	C739.929504,673.669312 745.846863,667.017151 748.540344,657.951416 
	C750.193298,652.388184 753.447449,650.700134 758.827942,650.833557 
	C768.984497,651.085510 779.150513,650.931152 789.311707,651.030823 
	C796.032166,651.096741 797.287476,652.856323 795.469910,659.316467 
	C786.140442,692.476013 757.422974,716.437622 723.180115,720.371094 
	C695.195312,723.585632 669.971191,717.565979 647.862305,699.773193 
	C633.222412,687.991150 624.685730,672.202454 620.328247,654.429138 
	C613.447449,626.363892 614.880920,598.614258 626.765869,571.873535 
	C631.074890,562.178223 637.227844,553.721680 645.050964,546.046509 
z"/>
</svg>